<svg xmlns="http://www.w3.org/2000/svg" width="430" height="430" style="width:100%;height:100%;transform:translate3d(0,0,0);content-visibility:visible" viewBox="0 0 430 430"><defs><clipPath id="a"><path d="M0 0h430v430H0z"/></clipPath><clipPath id="d"><path d="M0 0h430v430H0z"/></clipPath><clipPath id="c"><path d="M0 0h430v430H0z"/></clipPath><clipPath id="b"><path d="M0 0h430v430H0z"/></clipPath></defs><g fill="none" clip-path="url(#a)"><g clip-path="url(#b)" style="display:none"><path class="secondary" style="display:none"/><path class="primary" style="display:none"/><g style="display:none"><path class="primary"/><path class="primary"/></g><path class="secondary" style="display:none"/><path class="primary" style="display:none"/><g style="display:none"><path class="primary"/><path class="primary"/></g></g><g stroke-linecap="round" stroke-width="12" clip-path="url(#c)" style="display:block"><path stroke="#c9a961" stroke-linejoin="round" d="M-43.375 0h86.75" class="secondary" style="display:block" transform="translate(144.777 99.926)"/><path stroke="#c9a961" stroke-linejoin="round" d="M40-100h-80L-50.887 45.154C-53.107 74.757-29.686 100 0 100s53.107-25.243 50.887-54.846z" class="primary" style="display:block" transform="rotate(10 -767.296 853.871)"/><g stroke="#c9a961" style="display:block"><path stroke-linejoin="round" d="m137.662 370.627-2.462 13.961-78.785-13.891 2.462-13.962a15 15 0 0 1 14.16-12.382l28.848-1.179 26.706 10.974a15 15 0 0 1 9.07 16.479" class="primary"/><path d="m101.885 343.174 17.365-98.48" class="primary"/></g><path stroke="#c9a961" stroke-linejoin="round" d="M-43.375 0h86.75" class="secondary" style="display:block" transform="translate(285.281 99.926)"/><path stroke="#c9a961" stroke-linejoin="round" d="M40-100h-80L-50.887 45.154C-53.107 74.757-29.686 100 0 100s53.107-25.243 50.887-54.846z" class="primary" style="display:block" transform="rotate(-10 982.325 -1603.933)"/><g stroke="#c9a961" style="display:block"><path stroke-linejoin="round" d="m371.18 356.735 2.463 13.962-78.785 13.891-2.462-13.961a15 15 0 0 1 9.071-16.479l26.706-10.974 28.847 1.179a15 15 0 0 1 14.16 12.382" class="primary"/><path d="m328.173 343.174-17.365-98.48" class="primary"/></g></g><g clip-path="url(#d)" style="display:none"><path class="secondary" style="display:none"/><path class="primary" style="display:none"/><g style="display:none"><path class="primary"/><path class="primary"/></g><path class="secondary" style="display:none"/><path class="primary" style="display:none"/><g style="display:none"><path class="primary"/><path class="primary"/></g></g></g></svg>