<svg xmlns="http://www.w3.org/2000/svg" width="430" height="430" style="width:100%;height:100%;transform:translate3d(0,0,0);content-visibility:visible" viewBox="0 0 430 430"><defs><clipPath id="a"><path d="M0 0h430v430H0z"/></clipPath><clipPath id="c"><path d="M0 0h430v430H0z"/></clipPath><clipPath id="b"><path d="M0 0h430v430H0z"/></clipPath></defs><g fill="none" clip-path="url(#a)"><g stroke-linecap="round" stroke-linejoin="round" stroke-width="11.97" clip-path="url(#b)" style="display:block"><g style="display:block"><path stroke="#c9a961" d="m158.414 156.805 141.775 37.988c-24.174 90.22-75.431 186.998-75.431 186.998l-94.517-25.326s3.999-109.44 28.173-199.66" class="primary"/><path stroke="#c9a961" d="m294.644 193.307 2.508-9.361c6.244-23.302-7.585-47.254-30.887-53.498l-46.299-12.406c-23.302-6.244-47.255 7.585-53.499 30.887l-2.508 9.362m55.527-40.378 18.665-54.231a10.213 10.213 0 0 1 12.301-6.542l19.862 5.322a10.214 10.214 0 0 1 7.382 11.816l-10.951 56.298" class="primary"/><path stroke="#c9a961" d="m184.39 343.412 17.284-64.504m-40.914 58.173 13.83-51.616m33.429 64.279 13.83-51.616" class="secondary"/></g><path stroke="#c9a961" d="M103.982 145.492c-.845-11.618 2.044-23.586 9.033-34.004s16.968-17.631 28.038-21.256M81.341 113.52c.622-7.049 2.726-13.428 6.436-18.959 3.716-5.539 8.832-9.922 15.142-13.167M326.47 312.025a53.82 53.82 0 0 1-9.625 33.84c-7.17 10.295-17.273 17.333-28.405 20.764m60.11-22.242c-.745 7.037-2.96 13.378-6.766 18.844-3.812 5.473-9.004 9.766-15.37 12.9" class="primary" style="display:block"/></g><g clip-path="url(#c)" style="display:none"><g style="display:none"><path class="primary"/><path class="primary"/><path class="primary"/><path class="secondary"/><path class="secondary"/><path class="secondary"/></g><g style="display:none"><path class="primary"/><path class="primary"/></g><g style="display:none"><path class="primary"/><path class="primary"/></g></g></g></svg>