<svg xmlns="http://www.w3.org/2000/svg" width="430" height="430" style="width:100%;height:100%;transform:translate3d(0,0,0);content-visibility:visible" viewBox="0 0 430 430"><defs><clipPath id="a"><path d="M0 0h430v430H0z"/></clipPath><clipPath id="c"><path d="M0 0h430v430H0z"/></clipPath><clipPath id="b"><path d="M0 0h430v430H0z"/></clipPath></defs><g fill="none" clip-path="url(#a)"><g stroke-linecap="round" stroke-width="12" clip-path="url(#b)" style="display:block"><path stroke="#c9a961" stroke-linejoin="round" d="M132.611 0h-265.222" class="secondary" style="display:block" transform="translate(214 95)"/><g stroke="#c9a961" style="display:block"><path stroke-linejoin="round" d="M275 383.403V400H155v-16.597c0-10.402 7.973-19.067 18.339-19.931L215 360l41.661 3.472c10.366.864 18.339 9.529 18.339 19.931" class="primary"/><path d="M215 360V190" class="primary"/></g><path stroke="#c9a961" stroke-linejoin="round" d="M0 70C77.32 70 140 7.32 140-70h-280C-140 7.32-77.32 70 0 70" class="primary" style="display:block" transform="translate(214 120)"/></g><g clip-path="url(#c)" style="display:none"><path class="secondary" style="display:none"/><g style="display:none"><path class="primary"/><path class="primary"/></g><path class="primary" style="display:none"/></g></g></svg>