<svg xmlns="http://www.w3.org/2000/svg" width="430" height="430" style="width:100%;height:100%;transform:translate3d(0,0,0);content-visibility:visible" viewBox="0 0 430 430">
  <g fill="none" stroke="#c9a961" stroke-linecap="round" stroke-linejoin="round" stroke-width="12">
    <path d="M86 174h258c15.464 0 28 12.536 28 28v35H58v-35c0-15.464 12.536-28 28-28Z"/>
    <path d="M75 237h280v96H75z"/>
    <path d="M111 333v42m208-42v42"/>
    <path d="M119 274h192"/>
    <path d="M143 237v96m72-96v96m72-96v96"/>
    <path d="M126 174v-39c0-17.673 14.327-32 32-32h114c17.673 0 32 14.327 32 32v39"/>
    <path d="M162 135h106"/>
    <path d="M332 110l29 29"/>
    <path d="M347 95l29 29"/>
    <path d="M324 118l-22 22"/>
    <path d="M369 73l-22 22"/>
    <path d="M106 103h42v32h-42z"/>
    <path d="M68 119l38-16v32l-38 16z"/>
    <path d="M132 293h16m67 0h16m67 0h16"/>
  </g>
</svg>
