<svg xmlns="http://www.w3.org/2000/svg" width="430" height="430" style="width:100%;height:100%;transform:translate3d(0,0,0);content-visibility:visible" viewBox="0 0 430 430"><defs><clipPath id="d"><path d="M0 0h430v430H0z"/></clipPath><clipPath id="e"><path d="M0 0h430v430H0z"/></clipPath><clipPath id="c"><path d="M0 0h430v430H0z"/></clipPath><filter id="a" width="100%" height="100%" x="0%" y="0%" filterUnits="objectBoundingBox"><feComponentTransfer in="SourceGraphic"><feFuncA tableValues="1.0 0.0" type="table"/></feComponentTransfer></filter><mask id="f" mask-type="alpha"><g filter="url(#a)"><path fill="#fff" d="M0 0h430v430H0z" opacity="0"/><use xmlns:ns1="http://www.w3.org/1999/xlink" ns1:href="#b"/></g></mask><g id="b" clip-path="url(#c)" style="display:block"><g style="display:block"><path fill-opacity="0" stroke="#c9a961" stroke-linecap="round" stroke-linejoin="round" stroke-width="0" d="M101.362 164.959v-15.293" class="secondary"/><path fill="#c9a961" d="M101.362 164.959v-15.293"/><path fill-opacity="0" stroke="#c9a961" stroke-linecap="round" stroke-linejoin="round" stroke-width="0" d="M149.369 267.081v100.292h-41.835V267.081" class="primary"/><path fill="#c9a961" d="M149.369 267.081v100.292h-41.835V267.081"/><path fill-opacity="0" stroke="#c9a961" stroke-linecap="round" stroke-linejoin="round" stroke-width="0" d="M32.432 234.45c-.003-.167-.004-.325-.005-.472-.135-26.08 24.773-68.935 68.935-68.935 44.162 0 69.07 42.855 68.935 68.935-.001.147-.002.305-.005.472H32.432z" class="secondary"/><path fill="#c9a961" d="M32.432 234.45c-.003-.167-.004-.325-.005-.472-.135-26.08 24.773-68.935 68.935-68.935 44.162 0 69.07 42.855 68.935 68.935-.001.147-.002.305-.005.472H32.432z"/><path fill-opacity="0" stroke="#c9a961" stroke-linecap="round" stroke-linejoin="round" stroke-width="0" d="M119.816 234.546c16.321 0 29.553 13.231 29.553 29.552v2.983H99.924c-16.321 0-29.552-13.232-29.552-29.553v-2.982" class="primary"/><path fill="#c9a961" d="M119.816 234.546c16.321 0 29.553 13.231 29.553 29.552v2.983H99.924c-16.321 0-29.552-13.232-29.552-29.553v-2.982"/><path fill-opacity="0" stroke="#c9a961" stroke-linecap="round" stroke-linejoin="round" stroke-width="0" d="M177.404 234.45H25.321" class="secondary"/><path fill="#c9a961" d="M177.404 234.45H25.321"/></g><g style="display:block"><path fill-opacity="0" stroke="#c9a961" stroke-linecap="round" stroke-linejoin="round" stroke-width="0" d="M285.666 267.081v23.753l-21.257-11.877-21.257-11.876 21.257-11.877 21.257-11.877v23.754z" class="secondary"/><path fill="#c9a961" d="M285.666 267.081v23.753l-21.257-11.877-21.257-11.876 21.257-11.877 21.257-11.877v23.754z"/></g><g style="display:block"><path fill-opacity="0" stroke="#c9a961" stroke-linecap="round" stroke-linejoin="round" stroke-width="0" d="M200.634 267.081v23.753l21.257-11.877 21.257-11.876-21.257-11.877-21.257-11.877v23.754z" class="secondary"/><path fill="#c9a961" d="M200.634 267.081v23.753l21.257-11.877 21.257-11.876-21.257-11.877-21.257-11.877v23.754z"/></g></g></defs><g clip-path="url(#d)"><g fill="none" stroke-linecap="round" stroke-linejoin="round" stroke-width="12.04" clip-path="url(#e)" style="display:block"><g mask="url(#f)" style="display:block"><path stroke="#c9a961" d="M243.146 267.081v100.292m30.604-132.832h6.91c41.42 0 75.01 33.59 75.01 75.02v25.09c0 6.88-5.16 12.67-12 13.47l-26.25 3.03c-7.17.83-14.19 2.67-20.85 5.45a139.145 139.145 0 0 1-53.69 10.77c-18.17 0-36.33-3.55-53.43-10.66l-.18-.08a81.092 81.092 0 0 0-21.75-5.65l-24.88-2.87c-6.84-.79-12.01-6.58-12.01-13.47v-25.08c0-41.43 33.59-75.02 75.01-75.02h6.91m61.215-17.389v17.117c0 16.837-30.619 32.812-30.619 32.812s-30.61-15.975-30.61-32.812v-17.108m-24.996-93.89c0 .33.01.67.02 1.01l1.75 50.41c.51 14.51 6.71 27.51 16.42 36.88 2.11 2.04 4.39 3.91 6.81 5.59 0 0 0-.01.01 0 8.7 6.01 19.25 9.53 30.6 9.53 11.35 0 21.91-3.52 30.61-9.54 13.55-9.37 22.62-24.8 23.23-42.46l1.67-48.22" class="primary"/><path stroke="#c9a961" d="m298.667 126.484 1.703-12.498c1.753-21.144-14.818-51.359-57.294-51.359-42.024 0-58.98 30.238-57.136 51.398l1.592 9.257 26.239-21.831s0 0 0 0a133.915 133.915 0 0 0 58.759 0s0 0 0 0l26.137 25.033z" class="secondary"/></g><g style="display:block"><path stroke="#c9a961" d="M101.362 164.959v-15.293" class="secondary"/><path stroke="#c9a961" d="M149.369 267.081v100.292h-41.835V267.081" class="primary"/><path stroke="#c9a961" d="M32.432 234.45c-.003-.167-.004-.325-.005-.472-.135-26.08 24.773-68.935 68.935-68.935 44.162 0 69.07 42.855 68.935 68.935-.001.147-.002.305-.005.472H32.432z" class="secondary"/><path stroke="#c9a961" d="M119.816 234.546c16.321 0 29.553 13.231 29.553 29.552v2.983H99.924c-16.321 0-29.552-13.232-29.552-29.553v-2.982" class="primary"/><path stroke="#c9a961" d="M177.404 234.45H25.321" class="secondary"/></g><path stroke="#c9a961" d="M70.666 52.081v23.753L49.409 63.957 28.152 52.081l21.257-11.877 21.257-11.877v23.754zm-85.032 0v23.753L6.891 63.957l21.257-11.876L6.891 40.204l-21.257-11.877v23.754z" class="secondary" style="display:block" transform="translate(215 215)"/></g></g></svg>